<mxfile host="app.diagrams.net" agent="Mozilla/5.0 (Windows NT 10.0; Win64; x64) AppleWebKit/537.36 (KHTML, like Gecko) Chrome/133.0.0.0 Safari/537.36" version="26.0.14">
  <diagram name="第 1 页" id="8shjV7Gl48XlRhgEqIzc">
    <mxGraphModel dx="817" dy="898" grid="0" gridSize="10" guides="1" tooltips="1" connect="1" arrows="1" fold="1" page="1" pageScale="1" pageWidth="827" pageHeight="1169" math="0" shadow="0">
      <root>
        <mxCell id="0" />
        <mxCell id="1" parent="0" />
        <mxCell id="2Z2vkavUFigWb8kZPWH0-153" value="" style="rounded=1;whiteSpace=wrap;html=1;fillStyle=auto;dashed=1;perimeterSpacing=6;" vertex="1" parent="1">
          <mxGeometry x="920" y="330" width="590" height="180" as="geometry" />
        </mxCell>
        <mxCell id="2Z2vkavUFigWb8kZPWH0-154" value="&lt;font face=&quot;Lucida Console&quot;&gt;&lt;font style=&quot;font-size: 17px;&quot;&gt;数&lt;/font&gt;&lt;font style=&quot;background-color: transparent; color: light-dark(rgb(0, 0, 0), rgb(255, 255, 255)); font-size: 17px;&quot;&gt;据&lt;/font&gt;&lt;font style=&quot;background-color: transparent; color: light-dark(rgb(0, 0, 0), rgb(255, 255, 255)); font-size: 17px;&quot;&gt;集&lt;/font&gt;&lt;span style=&quot;background-color: transparent; color: light-dark(rgb(0, 0, 0), rgb(255, 255, 255)); font-size: 17px;&quot;&gt;研&lt;/span&gt;&lt;/font&gt;&lt;div&gt;&lt;font face=&quot;Lucida Console&quot;&gt;&lt;span style=&quot;background-color: transparent; color: light-dark(rgb(0, 0, 0), rgb(255, 255, 255)); font-size: 17px;&quot;&gt;究&lt;/span&gt;&lt;span style=&quot;background-color: transparent; color: light-dark(rgb(0, 0, 0), rgb(255, 255, 255)); font-size: 17px;&quot;&gt;与处理&lt;/span&gt;&lt;/font&gt;&lt;/div&gt;" style="text;html=1;align=left;verticalAlign=middle;resizable=0;points=[];autosize=1;strokeColor=none;fillColor=none;horizontal=1;" vertex="1" parent="1">
          <mxGeometry x="980" y="395" width="90" height="50" as="geometry" />
        </mxCell>
        <mxCell id="2Z2vkavUFigWb8kZPWH0-155" value="" style="shape=curlyBracket;whiteSpace=wrap;html=1;rounded=1;labelPosition=left;verticalLabelPosition=middle;align=right;verticalAlign=middle;" vertex="1" parent="1">
          <mxGeometry x="1070" y="360" width="80" height="120" as="geometry" />
        </mxCell>
        <mxCell id="2Z2vkavUFigWb8kZPWH0-156" value="&lt;font style=&quot;font-size: 16px;&quot;&gt;分析常见缺陷&lt;/font&gt;" style="text;html=1;align=center;verticalAlign=middle;resizable=0;points=[];autosize=1;strokeColor=none;fillColor=none;" vertex="1" parent="1">
          <mxGeometry x="1230" y="340" width="120" height="30" as="geometry" />
        </mxCell>
        <mxCell id="2Z2vkavUFigWb8kZPWH0-157" value="&lt;font style=&quot;font-size: 16px;&quot;&gt;收集并制作数据集&lt;/font&gt;" style="text;html=1;align=center;verticalAlign=middle;resizable=0;points=[];autosize=1;strokeColor=none;fillColor=none;" vertex="1" parent="1">
          <mxGeometry x="1215" y="405" width="150" height="30" as="geometry" />
        </mxCell>
        <mxCell id="2Z2vkavUFigWb8kZPWH0-158" value="&lt;font style=&quot;font-size: 16px;&quot;&gt;数据集预处理与数据增强&lt;/font&gt;" style="text;html=1;align=center;verticalAlign=middle;resizable=0;points=[];autosize=1;strokeColor=none;fillColor=none;" vertex="1" parent="1">
          <mxGeometry x="1190" y="470" width="200" height="30" as="geometry" />
        </mxCell>
        <mxCell id="2Z2vkavUFigWb8kZPWH0-159" value="" style="shape=flexArrow;endArrow=classic;html=1;rounded=0;" edge="1" parent="1">
          <mxGeometry width="50" height="50" relative="1" as="geometry">
            <mxPoint x="1213.95" y="510" as="sourcePoint" />
            <mxPoint x="1213.95" y="560" as="targetPoint" />
          </mxGeometry>
        </mxCell>
        <mxCell id="2Z2vkavUFigWb8kZPWH0-160" value="" style="rounded=1;whiteSpace=wrap;html=1;fillStyle=auto;dashed=1;perimeterSpacing=6;" vertex="1" parent="1">
          <mxGeometry x="840" y="560" width="760" height="270" as="geometry" />
        </mxCell>
        <mxCell id="2Z2vkavUFigWb8kZPWH0-161" value="&lt;font face=&quot;Lucida Console&quot;&gt;&lt;span style=&quot;font-size: 17px;&quot;&gt;特征提取&lt;/span&gt;&lt;/font&gt;" style="text;html=1;align=left;verticalAlign=middle;resizable=0;points=[];autosize=1;strokeColor=none;fillColor=none;horizontal=1;" vertex="1" parent="1">
          <mxGeometry x="870" y="720" width="90" height="30" as="geometry" />
        </mxCell>
        <mxCell id="2Z2vkavUFigWb8kZPWH0-162" value="&lt;font face=&quot;Lucida Console&quot;&gt;&lt;span style=&quot;font-size: 17px;&quot;&gt;基于改进YOLO的航空发动机叶片缺陷检测模型&lt;/span&gt;&lt;/font&gt;" style="text;html=1;align=left;verticalAlign=middle;resizable=0;points=[];autosize=1;strokeColor=none;fillColor=none;horizontal=1;" vertex="1" parent="1">
          <mxGeometry x="1030" y="580" width="370" height="30" as="geometry" />
        </mxCell>
        <mxCell id="2Z2vkavUFigWb8kZPWH0-163" value="" style="shape=curlyBracket;whiteSpace=wrap;html=1;rounded=1;flipH=1;labelPosition=right;verticalLabelPosition=middle;align=left;verticalAlign=middle;rotation=-90;" vertex="1" parent="1">
          <mxGeometry x="1195" y="357.5" width="40" height="555" as="geometry" />
        </mxCell>
        <mxCell id="2Z2vkavUFigWb8kZPWH0-164" value="" style="shape=curlyBracket;whiteSpace=wrap;html=1;rounded=1;labelPosition=left;verticalLabelPosition=middle;align=right;verticalAlign=middle;" vertex="1" parent="1">
          <mxGeometry x="940" y="687.5" width="40" height="95" as="geometry" />
        </mxCell>
        <mxCell id="2Z2vkavUFigWb8kZPWH0-165" value="&lt;font face=&quot;Lucida Console&quot;&gt;&lt;span style=&quot;font-size: 17px;&quot;&gt;原始C2f&lt;/span&gt;&lt;/font&gt;" style="text;html=1;align=left;verticalAlign=middle;resizable=0;points=[];autosize=1;strokeColor=none;fillColor=none;horizontal=1;" vertex="1" parent="1">
          <mxGeometry x="990" y="675" width="90" height="30" as="geometry" />
        </mxCell>
        <mxCell id="2Z2vkavUFigWb8kZPWH0-166" value="&lt;font face=&quot;Lucida Console&quot;&gt;&lt;span style=&quot;font-size: 17px;&quot;&gt;Covnext v2&lt;/span&gt;&lt;/font&gt;" style="text;html=1;align=left;verticalAlign=middle;resizable=0;points=[];autosize=1;strokeColor=none;fillColor=none;horizontal=1;" vertex="1" parent="1">
          <mxGeometry x="980" y="770" width="130" height="30" as="geometry" />
        </mxCell>
        <mxCell id="2Z2vkavUFigWb8kZPWH0-167" value="&lt;font face=&quot;Lucida Console&quot;&gt;&lt;span style=&quot;font-size: 17px;&quot;&gt;注意力机制&lt;/span&gt;&lt;/font&gt;" style="text;html=1;align=left;verticalAlign=middle;resizable=0;points=[];autosize=1;strokeColor=none;fillColor=none;horizontal=1;" vertex="1" parent="1">
          <mxGeometry x="1100" y="720" width="110" height="30" as="geometry" />
        </mxCell>
        <mxCell id="2Z2vkavUFigWb8kZPWH0-168" value="" style="shape=curlyBracket;whiteSpace=wrap;html=1;rounded=1;labelPosition=left;verticalLabelPosition=middle;align=right;verticalAlign=middle;" vertex="1" parent="1">
          <mxGeometry x="1190" y="687.5" width="40" height="95" as="geometry" />
        </mxCell>
        <mxCell id="2Z2vkavUFigWb8kZPWH0-169" value="&lt;font face=&quot;Lucida Console&quot;&gt;&lt;span style=&quot;font-size: 17px;&quot;&gt;SE&lt;/span&gt;&lt;/font&gt;" style="text;html=1;align=left;verticalAlign=middle;resizable=0;points=[];autosize=1;strokeColor=none;fillColor=none;horizontal=1;" vertex="1" parent="1">
          <mxGeometry x="1235" y="675" width="40" height="30" as="geometry" />
        </mxCell>
        <mxCell id="2Z2vkavUFigWb8kZPWH0-171" value="&lt;font face=&quot;Lucida Console&quot;&gt;&lt;span style=&quot;font-size: 17px;&quot;&gt;CBAM&lt;/span&gt;&lt;/font&gt;" style="text;html=1;align=left;verticalAlign=middle;resizable=0;points=[];autosize=1;strokeColor=none;fillColor=none;horizontal=1;" vertex="1" parent="1">
          <mxGeometry x="1235" y="720" width="60" height="30" as="geometry" />
        </mxCell>
        <mxCell id="2Z2vkavUFigWb8kZPWH0-172" value="&lt;font face=&quot;Lucida Console&quot;&gt;&lt;span style=&quot;font-size: 17px;&quot;&gt;GAM&lt;/span&gt;&lt;/font&gt;" style="text;html=1;align=left;verticalAlign=middle;resizable=0;points=[];autosize=1;strokeColor=none;fillColor=none;horizontal=1;" vertex="1" parent="1">
          <mxGeometry x="1235" y="770" width="50" height="30" as="geometry" />
        </mxCell>
        <mxCell id="2Z2vkavUFigWb8kZPWH0-173" value="&lt;div&gt;&lt;font face=&quot;Lucida Console&quot;&gt;&lt;span style=&quot;font-size: 17px;&quot;&gt;损失函数&lt;/span&gt;&lt;/font&gt;&lt;/div&gt;" style="text;html=1;align=center;verticalAlign=middle;resizable=0;points=[];autosize=1;strokeColor=none;fillColor=none;horizontal=1;" vertex="1" parent="1">
          <mxGeometry x="1335" y="750" width="90" height="30" as="geometry" />
        </mxCell>
        <mxCell id="2Z2vkavUFigWb8kZPWH0-174" value="" style="shape=curlyBracket;whiteSpace=wrap;html=1;rounded=1;labelPosition=left;verticalLabelPosition=middle;align=right;verticalAlign=middle;" vertex="1" parent="1">
          <mxGeometry x="1420" y="717.5" width="40" height="95" as="geometry" />
        </mxCell>
        <mxCell id="2Z2vkavUFigWb8kZPWH0-175" value="&lt;font face=&quot;Lucida Console&quot;&gt;&lt;span style=&quot;font-size: 17px;&quot;&gt;PANet&lt;/span&gt;&lt;/font&gt;" style="text;html=1;align=left;verticalAlign=middle;resizable=0;points=[];autosize=1;strokeColor=none;fillColor=none;horizontal=1;" vertex="1" parent="1">
          <mxGeometry x="1490" y="675" width="70" height="30" as="geometry" />
        </mxCell>
        <mxCell id="2Z2vkavUFigWb8kZPWH0-177" value="" style="edgeStyle=orthogonalEdgeStyle;rounded=0;orthogonalLoop=1;jettySize=auto;html=1;" edge="1" parent="1" source="2Z2vkavUFigWb8kZPWH0-176" target="2Z2vkavUFigWb8kZPWH0-175">
          <mxGeometry relative="1" as="geometry" />
        </mxCell>
        <mxCell id="2Z2vkavUFigWb8kZPWH0-176" value="&lt;div&gt;&lt;font face=&quot;Lucida Console&quot;&gt;&lt;span style=&quot;font-size: 17px;&quot;&gt;多尺度特征融合&lt;/span&gt;&lt;/font&gt;&lt;/div&gt;" style="text;html=1;align=center;verticalAlign=middle;resizable=0;points=[];autosize=1;strokeColor=none;fillColor=none;horizontal=1;" vertex="1" parent="1">
          <mxGeometry x="1320" y="675" width="140" height="30" as="geometry" />
        </mxCell>
        <mxCell id="2Z2vkavUFigWb8kZPWH0-178" value="&lt;font face=&quot;Lucida Console&quot;&gt;&lt;span style=&quot;font-size: 17px;&quot;&gt;原始CIOU&lt;/span&gt;&lt;/font&gt;" style="text;html=1;align=left;verticalAlign=middle;resizable=0;points=[];autosize=1;strokeColor=none;fillColor=none;horizontal=1;" vertex="1" parent="1">
          <mxGeometry x="1470" y="705" width="100" height="30" as="geometry" />
        </mxCell>
        <mxCell id="2Z2vkavUFigWb8kZPWH0-179" value="&lt;font face=&quot;Lucida Console&quot;&gt;&lt;span style=&quot;font-size: 17px;&quot;&gt;WIOU&lt;/span&gt;&lt;/font&gt;" style="text;html=1;align=left;verticalAlign=middle;resizable=0;points=[];autosize=1;strokeColor=none;fillColor=none;horizontal=1;" vertex="1" parent="1">
          <mxGeometry x="1470" y="790" width="60" height="30" as="geometry" />
        </mxCell>
        <mxCell id="2Z2vkavUFigWb8kZPWH0-181" value="" style="rounded=1;whiteSpace=wrap;html=1;fillStyle=auto;dashed=1;perimeterSpacing=6;" vertex="1" parent="1">
          <mxGeometry x="915" y="880" width="590" height="180" as="geometry" />
        </mxCell>
        <mxCell id="2Z2vkavUFigWb8kZPWH0-182" value="" style="shape=flexArrow;endArrow=classic;html=1;rounded=0;" edge="1" parent="1">
          <mxGeometry width="50" height="50" relative="1" as="geometry">
            <mxPoint x="1215" y="830" as="sourcePoint" />
            <mxPoint x="1215" y="880" as="targetPoint" />
          </mxGeometry>
        </mxCell>
        <mxCell id="2Z2vkavUFigWb8kZPWH0-183" value="&lt;font face=&quot;Lucida Console&quot;&gt;&lt;span style=&quot;font-size: 17px;&quot;&gt;航空发动机叶片缺陷检测系统&lt;/span&gt;&lt;/font&gt;" style="text;html=1;align=left;verticalAlign=middle;resizable=0;points=[];autosize=1;strokeColor=none;fillColor=none;horizontal=1;" vertex="1" parent="1">
          <mxGeometry x="1095" y="900" width="240" height="30" as="geometry" />
        </mxCell>
        <mxCell id="2Z2vkavUFigWb8kZPWH0-184" value="&lt;font face=&quot;Lucida Console&quot;&gt;&lt;span style=&quot;font-size: 17px;&quot;&gt;基于PyQt5的图形化界面&lt;/span&gt;&lt;/font&gt;" style="text;html=1;align=left;verticalAlign=middle;resizable=0;points=[];autosize=1;strokeColor=none;fillColor=none;horizontal=1;" vertex="1" parent="1">
          <mxGeometry x="960" y="980" width="210" height="30" as="geometry" />
        </mxCell>
        <mxCell id="2Z2vkavUFigWb8kZPWH0-185" value="&lt;font face=&quot;Lucida Console&quot;&gt;&lt;span style=&quot;font-size: 17px;&quot;&gt;用户交互&lt;/span&gt;&lt;/font&gt;" style="text;html=1;align=left;verticalAlign=middle;resizable=0;points=[];autosize=1;strokeColor=none;fillColor=none;horizontal=1;" vertex="1" parent="1">
          <mxGeometry x="1300" y="980" width="90" height="30" as="geometry" />
        </mxCell>
        <mxCell id="2Z2vkavUFigWb8kZPWH0-186" value="" style="shape=curlyBracket;whiteSpace=wrap;html=1;rounded=1;flipH=1;labelPosition=right;verticalLabelPosition=middle;align=left;verticalAlign=middle;rotation=-90;" vertex="1" parent="1">
          <mxGeometry x="1190" y="770" width="40" height="360" as="geometry" />
        </mxCell>
      </root>
    </mxGraphModel>
  </diagram>
</mxfile>
